<svg width="233" height="83" viewBox="0 0 233 83" fill="none" xmlns="http://www.w3.org/2000/svg">
<path d="M6.21335 24.266C4.81248 24.266 3.73967 23.867 2.9949 23.069C2.26787 22.2711 1.90436 21.1451 1.90436 19.691V9.68988C1.90436 8.23582 2.26787 7.10981 2.9949 6.31185C3.73967 5.51388 4.81248 5.1149 6.21335 5.1149C7.61422 5.1149 8.67817 5.51388 9.4052 6.31185C10.15 7.10981 10.5223 8.23582 10.5223 9.68988V11.6582H7.75608V9.50369C7.75608 8.35108 7.26843 7.77478 6.29315 7.77478C5.31786 7.77478 4.83022 8.35108 4.83022 9.50369V19.9038C4.83022 21.0387 5.31786 21.6061 6.29315 21.6061C7.26843 21.6061 7.75608 21.0387 7.75608 19.9038V17.0577H10.5223V19.691C10.5223 21.1451 10.15 22.2711 9.4052 23.069C8.67817 23.867 7.61422 24.266 6.21335 24.266ZM14.5338 5.38089H18.497L21.5292 24H18.6034L18.0714 20.3028V20.356H14.7466L14.2146 24H11.5015L14.5338 5.38089ZM17.7256 17.8291L16.4223 8.62594H16.3691L15.0923 17.8291H17.7256ZM22.9487 5.38089H27.2843C28.7916 5.38089 29.891 5.73554 30.5826 6.44484C31.2741 7.13641 31.6199 8.20922 31.6199 9.66329V10.807C31.6199 12.7399 30.9815 13.9634 29.7048 14.4777V14.5309C30.4141 14.7436 30.9106 15.1781 31.1943 15.8342C31.4958 16.4903 31.6465 17.3681 31.6465 18.4675V21.7391C31.6465 22.2711 31.6642 22.7055 31.6997 23.0424C31.7352 23.3616 31.8238 23.6808 31.9657 24H28.9866C28.8802 23.6985 28.8093 23.4148 28.7739 23.1488C28.7384 22.8829 28.7207 22.4041 28.7207 21.7125V18.3079C28.7207 17.4567 28.5788 16.8627 28.2951 16.5258C28.0291 16.1888 27.5592 16.0204 26.8853 16.0204H25.8746V24H22.9487V5.38089ZM26.9385 13.3605C27.5237 13.3605 27.9582 13.2098 28.2419 12.9083C28.5433 12.6069 28.6941 12.1015 28.6941 11.3922V9.95587C28.6941 9.28204 28.5699 8.79439 28.3217 8.49294C28.0911 8.19149 27.7188 8.04076 27.2045 8.04076H25.8746V13.3605H26.9385ZM35.9121 8.04076H32.8532V5.38089H41.8968V8.04076H38.8379V24H35.9121V8.04076ZM44.3534 5.38089H48.3166L51.3489 24H48.423L47.8911 20.3028V20.356H44.5662L44.0342 24H41.3212L44.3534 5.38089ZM47.5453 17.8291L46.2419 8.62594H46.1887L44.912 17.8291H47.5453ZM56.4941 24.266C55.0755 24.266 54.0027 23.867 53.2756 23.069C52.5486 22.2534 52.1851 21.0919 52.1851 19.5846V18.5207H54.9514V19.7974C54.9514 21.0032 55.4567 21.6061 56.4675 21.6061C56.964 21.6061 57.3364 21.4643 57.5846 21.1805C57.8506 20.8791 57.9836 20.4003 57.9836 19.7442C57.9836 18.964 57.8063 18.2813 57.4516 17.6961C57.097 17.0932 56.4409 16.375 55.4833 15.5416C54.2775 14.4777 53.4352 13.5201 52.9565 12.6689C52.4777 11.8001 52.2383 10.8248 52.2383 9.74308C52.2383 8.27129 52.6107 7.13641 53.3554 6.33844C54.1002 5.52275 55.1819 5.1149 56.6005 5.1149C58.0013 5.1149 59.0564 5.52275 59.7657 6.33844C60.4928 7.13641 60.8563 8.28902 60.8563 9.79628V10.5676H58.09V9.61009C58.09 8.97172 57.9659 8.51067 57.7176 8.22695C57.4694 7.9255 57.1059 7.77478 56.6271 7.77478C55.6518 7.77478 55.1642 8.36881 55.1642 9.55689C55.1642 10.2307 55.3415 10.8602 55.6961 11.4454C56.0685 12.0306 56.7335 12.7399 57.691 13.5733C58.9146 14.6372 59.7569 15.6037 60.2179 16.4726C60.679 17.3415 60.9095 18.3611 60.9095 19.5314C60.9095 21.0564 60.5282 22.2268 59.7657 23.0424C59.021 23.8581 57.9304 24.266 56.4941 24.266ZM70.9698 24.266C69.569 24.266 68.4961 23.867 67.7514 23.069C67.0243 22.2711 66.6608 21.1451 66.6608 19.691V9.68988C66.6608 8.23582 67.0243 7.10981 67.7514 6.31185C68.4961 5.51388 69.569 5.1149 70.9698 5.1149C72.3707 5.1149 73.4346 5.51388 74.1617 6.31185C74.9064 7.10981 75.2788 8.23582 75.2788 9.68988V11.6582H72.5125V9.50369C72.5125 8.35108 72.0249 7.77478 71.0496 7.77478C70.0743 7.77478 69.5867 8.35108 69.5867 9.50369V19.9038C69.5867 21.0387 70.0743 21.6061 71.0496 21.6061C72.0249 21.6061 72.5125 21.0387 72.5125 19.9038V17.0577H75.2788V19.691C75.2788 21.1451 74.9064 22.2711 74.1617 23.069C73.4346 23.867 72.3707 24.266 70.9698 24.266ZM81.3105 24.266C79.8742 24.266 78.7747 23.8581 78.0122 23.0424C77.2498 22.2268 76.8685 21.0741 76.8685 19.5846V9.79628C76.8685 8.30675 77.2498 7.15414 78.0122 6.33844C78.7747 5.52275 79.8742 5.1149 81.3105 5.1149C82.7468 5.1149 83.8462 5.52275 84.6087 6.33844C85.3712 7.15414 85.7525 8.30675 85.7525 9.79628V19.5846C85.7525 21.0741 85.3712 22.2268 84.6087 23.0424C83.8462 23.8581 82.7468 24.266 81.3105 24.266ZM81.3105 21.6061C82.3212 21.6061 82.8266 20.9943 82.8266 19.7708V9.61009C82.8266 8.38655 82.3212 7.77478 81.3105 7.77478C80.2997 7.77478 79.7944 8.38655 79.7944 9.61009V19.7708C79.7944 20.9943 80.2997 21.6061 81.3105 21.6061ZM87.7312 5.38089H91.4018L94.2479 16.5258H94.3011V5.38089H96.9077V24H93.9021L90.391 10.408H90.3378V24H87.7312V5.38089ZM101.37 8.04076H98.311V5.38089H107.355V8.04076H104.296V24H101.37V8.04076ZM108.771 5.38089H113.107C114.614 5.38089 115.713 5.73554 116.405 6.44484C117.097 7.13641 117.442 8.20922 117.442 9.66329V10.807C117.442 12.7399 116.804 13.9634 115.527 14.4777V14.5309C116.237 14.7436 116.733 15.1781 117.017 15.8342C117.318 16.4903 117.469 17.3681 117.469 18.4675V21.7391C117.469 22.2711 117.487 22.7055 117.522 23.0424C117.558 23.3616 117.646 23.6808 117.788 24H114.809C114.703 23.6985 114.632 23.4148 114.596 23.1488C114.561 22.8829 114.543 22.4041 114.543 21.7125V18.3079C114.543 17.4567 114.401 16.8627 114.118 16.5258C113.852 16.1888 113.382 16.0204 112.708 16.0204H111.697V24H108.771V5.38089ZM112.761 13.3605C113.346 13.3605 113.781 13.2098 114.064 12.9083C114.366 12.6069 114.517 12.1015 114.517 11.3922V9.95587C114.517 9.28204 114.392 8.79439 114.144 8.49294C113.914 8.19149 113.541 8.04076 113.027 8.04076H111.697V13.3605H112.761ZM121.76 5.38089H125.723L128.755 24H125.829L125.298 20.3028V20.356H121.973L121.441 24H118.728L121.76 5.38089ZM124.952 17.8291L123.648 8.62594H123.595L122.318 17.8291H124.952Z" fill="#FF9E00"/>
<path d="M0.930732 41.053C0.930732 40.9375 0.942277 40.7412 0.965366 40.4642C0.965366 40.164 0.965366 39.8639 0.965366 39.5637C0.965366 39.2405 0.976911 38.9403 1 38.6632C1 38.3862 1 38.2014 1 38.1091C1.57723 37.4857 2.05056 37.1162 2.41998 37.0008C2.8125 36.8854 3.1242 36.9546 3.3551 37.2086C3.58599 37.4395 3.74761 37.8205 3.83997 38.3515C3.95541 38.8826 4.03623 39.4829 4.0824 40.1525C4.12858 40.8221 4.15167 41.5263 4.15167 42.2651C4.15167 43.004 4.16322 43.6967 4.18631 44.3432C4.2094 44.9666 4.25557 45.5207 4.32484 46.0056C4.39411 46.4905 4.5211 46.8137 4.70581 46.9753H16.5852C17.0701 46.9753 17.4164 46.8252 17.6242 46.5251C17.832 46.2249 17.9475 45.8324 17.9705 45.3475C18.0167 44.8627 18.0052 44.3085 17.9359 43.6851C17.8666 43.0617 17.7974 42.4268 17.7281 41.7803C17.6819 41.1107 17.6588 40.4642 17.6588 39.8408C17.6819 39.1943 17.7858 38.6286 17.9705 38.1437C18.1783 37.6588 18.49 37.2663 18.9057 36.9662C19.3213 36.666 19.9331 36.5159 20.7412 36.5159C21.0414 36.9546 21.2261 37.4395 21.2954 37.9705C21.3647 38.4785 21.3762 39.0096 21.33 39.5637C21.3069 40.1178 21.2492 40.672 21.1568 41.2261C21.0876 41.7572 21.0529 42.2767 21.0529 42.7846C21.0529 44.1469 21.1338 45.5092 21.2954 46.8714C21.4801 48.2337 21.6648 49.5959 21.8495 50.9582C22.0573 52.3205 22.242 53.6827 22.4037 55.045C22.5884 56.3842 22.6807 57.7118 22.6807 59.0279C22.7269 60.4594 22.6346 61.4869 22.4037 62.1103C22.1728 62.7106 21.8842 62.9761 21.5378 62.9069C21.1915 62.8607 20.799 62.5143 20.3603 61.8678C19.9447 61.2213 19.5522 60.3555 19.1827 59.2703C18.8364 58.1851 18.5478 56.9152 18.3169 55.4606C18.1091 53.9829 18.0283 52.3897 18.0744 50.6811H5.57166C5.73328 52.2743 5.94108 53.7751 6.19506 55.1835C6.47213 56.592 6.67994 57.8388 6.81847 58.924C6.9801 59.9861 7.03782 60.8404 6.99164 61.4869C6.96855 62.1103 6.73766 62.4335 6.29897 62.4566C5.62938 62.4566 5.06369 62.2373 4.60191 61.7986C4.14013 61.3368 3.73607 60.7134 3.38973 59.9284C3.06648 59.1433 2.80096 58.2313 2.59315 57.1923C2.38535 56.1302 2.21218 55.0219 2.07365 53.8674C1.93511 52.6899 1.81967 51.4893 1.72731 50.2655C1.65804 49.0418 1.58877 47.8643 1.51951 46.7329C1.45024 45.6015 1.36943 44.551 1.27707 43.5812C1.18471 42.5884 1.06927 41.7456 0.930732 41.053ZM25.4861 38.8018C25.8555 39.0788 26.1557 39.4252 26.3865 39.8408C26.6174 40.2333 26.8022 40.6373 26.9407 41.053C26.9638 41.9303 26.9753 42.9809 26.9753 44.2046C26.9753 45.4284 27.0215 46.6983 27.1139 48.0143C27.2062 49.3304 27.3794 50.6465 27.6334 51.9626C27.8873 53.2556 28.2799 54.4216 28.8109 55.4606C29.365 56.4996 30.0924 57.3424 30.9928 57.9889C31.9164 58.6123 33.0709 58.924 34.4562 58.924C35.7261 58.924 36.8113 58.6238 37.7118 58.0235C38.6354 57.4232 39.3973 56.6612 39.9976 55.7377C40.621 54.8141 41.0713 53.7866 41.3483 52.6553C41.6485 51.5008 41.7986 50.381 41.7986 49.2958C41.7986 47.1947 41.6947 45.0589 41.4869 42.8885C41.2791 40.6951 40.8981 38.5824 40.344 36.5506C40.5056 36.135 40.7134 35.9041 40.9674 35.8579C41.2213 35.7886 41.4984 35.754 41.7986 35.754C42.3989 35.754 42.8722 35.9964 43.2186 36.4813C43.5649 36.9662 43.8189 37.5896 43.9805 38.3515C44.1652 39.0904 44.2691 39.91 44.2922 40.8105C44.3384 41.6879 44.3384 42.5307 44.2922 43.3388C44.2691 44.1238 44.2229 44.828 44.1537 45.4514C44.1075 46.0518 44.0844 46.4327 44.0844 46.5944C44.0844 47.795 44.0498 49.0187 43.9805 50.2655C43.9343 51.4893 43.7958 52.6668 43.5649 53.7982C43.3571 54.9295 43.0338 55.9916 42.5951 56.9845C42.1795 57.9542 41.6139 58.8085 40.8981 59.5474C40.1823 60.2631 39.2934 60.8288 38.2313 61.2444C37.1692 61.66 35.8993 61.8678 34.4216 61.8678C32.5514 61.8678 31.0159 61.51 29.8153 60.7942C28.6147 60.0784 27.6449 59.1318 26.9061 57.9542C26.1903 56.7536 25.6477 55.3913 25.2783 53.8674C24.9319 52.3436 24.6779 50.785 24.5163 49.1919C24.3778 47.5987 24.2739 46.0287 24.2046 44.4817C24.1584 42.9347 24.0892 41.5378 23.9968 40.291L25.4861 38.8018ZM46.1971 47.7373C46.1971 47.4602 46.1971 47.01 46.1971 46.3866C46.2201 45.7401 46.2317 45.0705 46.2317 44.3778C46.2317 43.662 46.2317 42.9924 46.2317 42.369C46.2548 41.7456 46.2663 41.3069 46.2663 41.053C46.2894 40.8913 46.3471 40.6489 46.4395 40.3256C46.5318 39.9793 46.6357 39.6445 46.7512 39.3213C46.8897 38.998 47.0629 38.7209 47.2707 38.4901C47.5016 38.2361 47.7787 38.1091 48.1019 38.1091C48.8639 38.1091 49.5796 38.3169 50.2492 38.7325C50.9188 39.1481 51.5653 39.7022 52.1887 40.3949C52.8121 41.0645 53.4009 41.8149 53.955 42.6461C54.5322 43.4773 55.0979 44.3085 55.6521 45.1397C56.2062 45.9479 56.7488 46.7213 57.2799 47.4602C57.8109 48.176 58.342 48.7532 58.873 49.1919C59.4502 48.9379 59.9005 48.4761 60.2237 47.8065C60.547 47.1139 60.8125 46.3288 61.0203 45.4514C61.2281 44.551 61.4128 43.6274 61.5744 42.6807C61.7592 41.711 62.0016 40.8221 62.3018 40.0139C62.6019 39.2058 62.9944 38.5478 63.4793 38.0398C63.9873 37.5088 64.6799 37.2432 65.5573 37.2432C66.5963 37.2432 67.5315 37.6473 68.3627 38.4554C69.217 39.2635 69.9789 40.291 70.6485 41.5378C71.3181 42.7846 71.8838 44.17 72.3455 45.6939C72.8304 47.2178 73.2345 48.6839 73.5577 50.0924C73.881 51.5008 74.1234 52.7707 74.285 53.9021C74.4467 55.0334 74.5275 55.8416 74.5275 56.3264C74.5275 56.5342 74.5159 56.7651 74.4928 57.0191C74.4697 57.25 74.412 57.4694 74.3197 57.6772C74.2273 57.8619 74.0772 58.0119 73.8694 58.1274C73.6616 58.2198 73.3615 58.2082 72.969 58.0928C72.8535 58.0697 72.715 58.0119 72.5533 57.9196C72.4148 57.8041 72.2647 57.6656 72.1031 57.504C71.9415 57.3424 71.8029 57.1923 71.6875 57.0537C71.5721 56.8921 71.5143 56.7536 71.5143 56.6381C71.3065 55.5068 71.0756 54.2484 70.8217 52.8631C70.5677 51.4777 70.2444 50.0808 69.8519 48.6724C69.4825 47.2409 69.0092 45.8555 68.4319 44.5163C67.8547 43.1772 67.1389 42.0227 66.2846 41.053C65.615 41.4224 65.084 41.9881 64.6915 42.75C64.3221 43.4889 64.0104 44.3085 63.7564 45.209C63.5024 46.0864 63.2715 46.9869 63.0637 47.9104C62.8559 48.834 62.5788 49.6768 62.2325 50.4387C61.8861 51.1776 61.4475 51.7894 60.9164 52.2743C60.3854 52.7592 59.6696 53.0016 58.7691 53.0016C58.1457 53.0016 57.5338 52.8053 56.9335 52.4128C56.3563 51.9972 55.7906 51.4662 55.2365 50.8197C54.6823 50.1501 54.1397 49.4228 53.6087 48.6377C53.1007 47.8296 52.5928 47.0446 52.0848 46.2826C51.5999 45.4976 51.115 44.7703 50.6302 44.1007C50.1684 43.4311 49.6951 42.9001 49.2102 42.5076C49.0255 43.2233 48.8754 43.8583 48.76 44.4124C48.6676 44.9435 48.5868 45.463 48.5175 45.9709C48.4713 46.4789 48.4367 46.9984 48.4136 47.5295C48.4136 48.0605 48.4136 48.6493 48.4136 49.2958C48.4136 50.2655 48.4944 51.2353 48.6561 52.205C48.8177 53.1517 48.9908 54.0983 49.1756 55.045C49.3603 55.9916 49.5334 56.9498 49.6951 57.9196C49.8798 58.8662 49.9721 59.8244 49.9721 60.7942V61.0713C49.926 61.1405 49.8336 61.256 49.6951 61.4176C49.5565 61.5561 49.4064 61.7062 49.2448 61.8678C49.1063 62.0295 48.9562 62.1795 48.7946 62.3181C48.633 62.4335 48.5175 62.5143 48.4482 62.5605C48.4252 62.5836 48.379 62.5952 48.3097 62.5952C48.2404 62.6182 48.1712 62.6298 48.1019 62.6298C48.0557 62.6298 47.998 62.6182 47.9287 62.5952C47.8595 62.5721 47.8018 62.5605 47.7556 62.5605C47.5939 61.2213 47.4208 59.9514 47.2361 58.7508C47.0514 57.5502 46.8782 56.3611 46.7166 55.1835C46.578 54.006 46.451 52.8169 46.3356 51.6162C46.2432 50.4156 46.1971 49.1226 46.1971 47.7373ZM84.0864 32.1521C84.2249 31.7365 84.4212 31.494 84.6752 31.4248C84.9522 31.3555 85.2639 31.3209 85.6103 31.3209C86.1413 31.3209 86.7301 31.6787 87.3766 32.3945C88.0462 33.0872 88.7273 34.0223 89.42 35.1998C90.1127 36.3774 90.8053 37.7281 91.498 39.252C92.2138 40.7759 92.8949 42.3575 93.5414 43.9968C94.211 45.6131 94.8344 47.2293 95.4116 48.8455C95.9889 50.4618 96.4853 51.951 96.9009 53.3133C97.3396 54.6525 97.6744 55.8185 97.9053 56.8113C98.1362 57.8041 98.2516 58.4853 98.2516 58.8547C98.2516 59.2241 98.1592 59.582 97.9745 59.9284C97.8129 60.2516 97.5127 60.4132 97.0741 60.4132C96.797 60.4132 96.5545 60.3324 96.3467 60.1708C96.162 59.9861 96.0004 59.7667 95.8619 59.5127C95.7233 59.2588 95.5963 59.0048 95.4809 58.7508C95.3655 58.4968 95.2616 58.2775 95.1692 58.0928C95.0768 57.8388 94.8806 57.3539 94.5804 56.6381C94.3034 55.9224 94.0032 55.172 93.6799 54.3869C93.3798 53.6019 93.0912 52.8631 92.8141 52.1704C92.537 51.4777 92.3408 50.9813 92.2253 50.6811C90.6091 50.4041 88.9813 50.1501 87.342 49.9192C85.7257 49.6652 84.0171 49.4228 82.2162 49.1919H81.8352C81.004 52.7707 80.2651 55.5991 79.6186 57.6772C78.9952 59.7552 78.4642 61.2329 78.0255 62.1103C77.6099 62.9877 77.2751 63.3455 77.0211 63.1839C76.7902 63.0454 76.6286 62.5259 76.5362 61.6254C76.467 60.7018 76.4785 59.4781 76.5709 57.9542C76.6863 56.4303 76.8826 54.7564 77.1596 52.9323C77.4598 51.0852 77.8177 49.1573 78.2333 47.1485C78.6489 45.1397 79.1453 43.2002 79.7225 41.33C80.3229 39.4598 80.9809 37.7281 81.6967 36.135C82.4355 34.5187 83.2321 33.1911 84.0864 32.1521ZM83.2552 44.3432C83.2552 45.1975 83.5323 45.8324 84.0864 46.248C84.6405 46.6405 85.3101 46.8945 86.0952 47.01C86.8802 47.1254 87.6998 47.1716 88.5541 47.1485C89.4315 47.1254 90.1819 47.1139 90.8053 47.1139C90.8053 46.1903 90.6553 45.1975 90.3551 44.1354C90.0549 43.0502 89.674 41.9765 89.2122 40.9144C88.7504 39.8523 88.254 38.8248 87.7229 37.832C87.215 36.8161 86.7416 35.9041 86.303 35.0959C86.049 35.3499 85.7719 35.8233 85.4717 36.5159C85.1947 37.1855 84.9061 37.9475 84.6059 38.8018C84.3288 39.633 84.0748 40.4526 83.844 41.2608C83.6131 42.0689 83.4399 42.7269 83.3245 43.2349C83.3245 43.3041 83.3129 43.4889 83.2898 43.789C83.2667 44.0661 83.2552 44.2508 83.2552 44.3432ZM101.923 61.0713C101.83 60.7018 101.703 60.1708 101.542 59.4781C101.403 58.7854 101.242 58.0235 101.057 57.1923C100.895 56.3611 100.734 55.4952 100.572 54.5948C100.41 53.6712 100.26 52.7823 100.122 51.928C99.9833 51.0506 99.8678 50.254 99.7755 49.5382C99.7062 48.7994 99.6716 48.1991 99.6716 47.7373C99.6716 47.5295 99.6947 47.1716 99.7409 46.6636C99.787 46.1557 99.8563 45.6246 99.9487 45.0705C100.041 44.5163 100.122 43.9968 100.191 43.5119C100.283 43.0271 100.364 42.6923 100.434 42.5076C100.503 42.4845 100.618 42.4729 100.78 42.4729C100.965 42.4729 101.149 42.4614 101.334 42.4383C101.542 42.4152 101.727 42.4037 101.888 42.4037C102.073 42.3806 102.2 42.369 102.269 42.369C103.377 42.369 104.428 42.5884 105.421 43.0271C106.414 43.4658 107.36 44.0199 108.261 44.6895C109.161 45.3591 110.039 46.1095 110.893 46.9407C111.747 47.7719 112.602 48.58 113.456 49.3651C114.333 50.1501 115.222 50.8659 116.123 51.5123C117.023 52.1358 117.981 52.6091 118.997 52.9323C118.997 52.8169 118.997 52.6437 118.997 52.4128C119.02 52.1588 119.032 51.8933 119.032 51.6162C119.032 51.3392 119.032 51.0852 119.032 50.8543C119.055 50.6003 119.066 50.4156 119.066 50.3002C119.066 48.8455 118.974 47.4256 118.789 46.0402C118.605 44.6549 118.397 43.2695 118.166 41.8842C117.935 40.4988 117.727 39.1135 117.543 37.7281C117.358 36.3197 117.266 34.8766 117.266 33.3989C117.427 33.3989 117.623 33.4104 117.854 33.4335C118.108 33.4335 118.362 33.4682 118.616 33.5374C118.87 33.5836 119.101 33.676 119.309 33.8145C119.517 33.9299 119.655 34.1147 119.725 34.3686C119.817 36.0311 120.025 37.705 120.348 39.3905C120.671 41.053 121.006 42.7269 121.352 44.4124C121.699 46.0748 121.999 47.7488 122.253 49.4343C122.53 51.0967 122.668 52.7476 122.668 54.3869C122.668 54.6871 122.657 55.0104 122.634 55.3567C122.634 55.703 122.588 56.0378 122.495 56.3611C122.426 56.6612 122.299 56.9152 122.114 57.123C121.93 57.3308 121.652 57.4347 121.283 57.4347C120.082 57.4347 118.974 57.1692 117.958 56.6381C116.942 56.084 115.949 55.4029 114.98 54.5948C114.033 53.7866 113.098 52.8977 112.174 51.928C111.274 50.9582 110.339 50.0693 109.369 49.2612C108.422 48.453 107.43 47.7719 106.391 47.2178C105.375 46.6636 104.278 46.3866 103.1 46.3866C103.1 47.6795 103.193 48.9264 103.377 50.127C103.562 51.3045 103.758 52.4821 103.966 53.6596C104.197 54.8372 104.405 56.0147 104.59 57.1923C104.774 58.3467 104.867 59.5243 104.867 60.7249C104.867 61.1636 104.705 61.4638 104.382 61.6254C104.082 61.787 103.747 61.8678 103.377 61.8678C103.077 61.8678 102.789 61.8448 102.512 61.7986C102.258 61.7293 102.061 61.4869 101.923 61.0713ZM134.548 57.7464C134.548 56.5227 134.398 55.1951 134.098 53.7635C133.797 52.332 133.474 50.8659 133.128 49.3651C132.781 47.8643 132.447 46.375 132.123 44.8973C131.8 43.3965 131.627 41.9881 131.604 40.672H123.881C123.881 40.4873 123.881 40.2217 123.881 39.8754C123.881 39.5291 123.915 39.1827 123.984 38.8364C124.054 38.467 124.158 38.1437 124.296 37.8666C124.435 37.5665 124.643 37.3818 124.92 37.3125H143.968C143.945 38.0514 143.795 38.617 143.518 39.0096C143.241 39.4021 142.871 39.7022 142.41 39.91C141.971 40.1178 141.475 40.2564 140.92 40.3256C140.366 40.3718 139.812 40.4295 139.258 40.4988C138.704 40.5681 138.161 40.6604 137.63 40.7759C137.099 40.8682 136.637 41.0645 136.245 41.3647C135.875 41.6648 135.587 42.0804 135.379 42.6115C135.194 43.1194 135.148 43.8121 135.24 44.6895C135.24 45.1744 135.275 45.8209 135.344 46.629C135.414 47.414 135.529 48.2683 135.691 49.1919C135.852 50.1155 136.06 51.0506 136.314 51.9972C136.568 52.9208 136.88 53.7751 137.249 54.5601C137.642 55.3221 138.08 55.9455 138.565 56.4303C139.073 56.8921 139.662 57.123 140.332 57.123C140.793 57.1692 141.382 57.1807 142.098 57.1576C142.837 57.1115 143.576 57.0768 144.315 57.0537C145.053 57.0307 145.746 57.0422 146.393 57.0884C147.062 57.1346 147.547 57.2731 147.847 57.504C148.147 57.7349 148.217 58.0812 148.055 58.543C147.893 58.9817 147.385 59.582 146.531 60.344C145.053 60.8981 143.553 61.2791 142.029 61.4869C140.528 61.6716 139.016 61.7755 137.492 61.7986C135.968 61.7986 134.444 61.7755 132.92 61.7293C131.396 61.66 129.884 61.6254 128.383 61.6254C127.529 60.5864 127.021 59.7898 126.859 59.2357C126.697 58.6815 126.755 58.3006 127.032 58.0928C127.332 57.8619 127.794 57.7464 128.418 57.7464C129.064 57.7233 129.757 57.7464 130.496 57.8157C131.234 57.8619 131.973 57.908 132.712 57.9542C133.451 57.9773 134.063 57.908 134.548 57.7464ZM150.895 39.0788C150.895 38.1091 151.172 37.3125 151.726 36.6891C152.303 36.0657 153.008 35.5808 153.839 35.2345C154.693 34.8651 155.605 34.6226 156.575 34.5072C157.545 34.3686 158.422 34.2994 159.207 34.2994C160.708 34.2994 161.966 34.5995 162.982 35.1998C164.021 35.7771 164.852 36.5506 165.476 37.5203C166.122 38.4901 166.584 39.6099 166.861 40.8798C167.138 42.1497 167.277 43.4427 167.277 44.7588C167.277 45.6362 167.184 46.6752 167 47.8758C166.815 49.0534 166.538 50.2771 166.168 51.547C165.799 52.7938 165.337 54.0406 164.783 55.2874C164.252 56.5112 163.629 57.6194 162.913 58.6123C162.197 59.582 161.389 60.367 160.488 60.9674C159.611 61.5677 158.641 61.8678 157.579 61.8678C157.371 61.8678 157.117 61.5908 156.817 61.0366C156.54 60.4594 156.217 59.6975 155.848 58.7508C155.501 57.8041 155.132 56.719 154.739 55.4952C154.37 54.2484 154 52.967 153.631 51.6509C153.262 50.3117 152.915 48.9725 152.592 47.6334C152.269 46.2942 151.969 45.0589 151.691 43.9276C151.438 42.7962 151.241 41.8033 151.103 40.9491C150.964 40.0948 150.895 39.4713 150.895 39.0788ZM153.77 41.053C153.77 41.7918 153.816 42.6346 153.908 43.5812C154.023 44.5279 154.185 45.5092 154.393 46.5251C154.624 47.541 154.901 48.5685 155.224 49.6075C155.57 50.6234 155.963 51.5816 156.402 52.4821C156.84 53.3826 157.337 54.2022 157.891 54.9411C158.445 55.6569 159.068 56.2225 159.761 56.6381C160.546 55.5299 161.227 54.537 161.805 53.6596C162.382 52.7823 162.855 51.9049 163.225 51.0275C163.594 50.1501 163.859 49.215 164.021 48.2221C164.206 47.2293 164.298 46.0748 164.298 44.7588C164.298 43.8121 164.24 42.8885 164.125 41.9881C164.01 41.0876 163.756 40.291 163.363 39.5983C162.994 38.8826 162.463 38.3169 161.77 37.9013C161.077 37.4626 160.165 37.2432 159.034 37.2432C158.11 37.2432 157.21 37.3933 156.332 37.6935C155.478 37.9705 154.647 38.34 153.839 38.8018C153.839 38.871 153.827 39.0096 153.804 39.2174C153.804 39.4252 153.804 39.6561 153.804 39.91C153.804 40.1409 153.793 40.3718 153.77 40.6027C153.77 40.8105 153.77 40.9606 153.77 41.053ZM176.108 32.1521C176.247 31.7365 176.443 31.494 176.697 31.4248C176.974 31.3555 177.286 31.3209 177.632 31.3209C178.163 31.3209 178.752 31.6787 179.398 32.3945C180.068 33.0872 180.749 34.0223 181.442 35.1998C182.135 36.3774 182.827 37.7281 183.52 39.252C184.236 40.7759 184.917 42.3575 185.563 43.9968C186.233 45.6131 186.856 47.2293 187.434 48.8455C188.011 50.4618 188.507 51.951 188.923 53.3133C189.361 54.6525 189.696 55.8185 189.927 56.8113C190.158 57.8041 190.273 58.4853 190.273 58.8547C190.273 59.2241 190.181 59.582 189.996 59.9284C189.835 60.2516 189.535 60.4132 189.096 60.4132C188.819 60.4132 188.576 60.3324 188.369 60.1708C188.184 59.9861 188.022 59.7667 187.884 59.5127C187.745 59.2588 187.618 59.0048 187.503 58.7508C187.387 58.4968 187.283 58.2775 187.191 58.0928C187.099 57.8388 186.902 57.3539 186.602 56.6381C186.325 55.9224 186.025 55.172 185.702 54.3869C185.402 53.6019 185.113 52.8631 184.836 52.1704C184.559 51.4777 184.363 50.9813 184.247 50.6811C182.631 50.4041 181.003 50.1501 179.364 49.9192C177.748 49.6652 176.039 49.4228 174.238 49.1919H173.857C173.026 52.7707 172.287 55.5991 171.641 57.6772C171.017 59.7552 170.486 61.2329 170.047 62.1103C169.632 62.9877 169.297 63.3455 169.043 63.1839C168.812 63.0454 168.65 62.5259 168.558 61.6254C168.489 60.7018 168.5 59.4781 168.593 57.9542C168.708 56.4303 168.904 54.7564 169.182 52.9323C169.482 51.0852 169.84 49.1573 170.255 47.1485C170.671 45.1397 171.167 43.2002 171.744 41.33C172.345 39.4598 173.003 37.7281 173.719 36.135C174.457 34.5187 175.254 33.1911 176.108 32.1521ZM175.277 44.3432C175.277 45.1975 175.554 45.8324 176.108 46.248C176.662 46.6405 177.332 46.8945 178.117 47.01C178.902 47.1254 179.722 47.1716 180.576 47.1485C181.453 47.1254 182.204 47.1139 182.827 47.1139C182.827 46.1903 182.677 45.1975 182.377 44.1354C182.077 43.0502 181.696 41.9765 181.234 40.9144C180.772 39.8523 180.276 38.8248 179.745 37.832C179.237 36.8161 178.764 35.9041 178.325 35.0959C178.071 35.3499 177.794 35.8233 177.494 36.5159C177.217 37.1855 176.928 37.9475 176.628 38.8018C176.351 39.633 176.097 40.4526 175.866 41.2608C175.635 42.0689 175.462 42.7269 175.346 43.2349C175.346 43.3041 175.335 43.4889 175.312 43.789C175.289 44.0661 175.277 44.2508 175.277 44.3432ZM192.455 39.0788C192.455 38.1091 192.732 37.3125 193.287 36.6891C193.864 36.0657 194.568 35.5808 195.399 35.2345C196.254 34.8651 197.166 34.6226 198.135 34.5072C199.105 34.3686 199.982 34.2994 200.768 34.2994C202.268 34.2994 203.527 34.5995 204.543 35.1998C205.582 35.7771 206.413 36.5506 207.036 37.5203C207.683 38.4901 208.145 39.6099 208.422 40.8798C208.699 42.1497 208.837 43.4427 208.837 44.7588C208.837 45.6362 208.745 46.6752 208.56 47.8758C208.375 49.0534 208.098 50.2771 207.729 51.547C207.359 52.7938 206.898 54.0406 206.344 55.2874C205.813 56.5112 205.189 57.6194 204.473 58.6123C203.758 59.582 202.949 60.367 202.049 60.9674C201.172 61.5677 200.202 61.8678 199.14 61.8678C198.932 61.8678 198.678 61.5908 198.378 61.0366C198.101 60.4594 197.777 59.6975 197.408 58.7508C197.062 57.8041 196.692 56.719 196.3 55.4952C195.93 54.2484 195.561 52.967 195.191 51.6509C194.822 50.3117 194.476 48.9725 194.152 47.6334C193.829 46.2942 193.529 45.0589 193.252 43.9276C192.998 42.7962 192.802 41.8033 192.663 40.9491C192.525 40.0948 192.455 39.4713 192.455 39.0788ZM195.33 41.053C195.33 41.7918 195.376 42.6346 195.469 43.5812C195.584 44.5279 195.746 45.5092 195.953 46.5251C196.184 47.541 196.461 48.5685 196.785 49.6075C197.131 50.6234 197.523 51.5816 197.962 52.4821C198.401 53.3826 198.897 54.2022 199.451 54.9411C200.006 55.6569 200.629 56.2225 201.322 56.6381C202.107 55.5299 202.788 54.537 203.365 53.6596C203.942 52.7823 204.416 51.9049 204.785 51.0275C205.154 50.1501 205.42 49.215 205.582 48.2221C205.766 47.2293 205.859 46.0748 205.859 44.7588C205.859 43.8121 205.801 42.8885 205.686 41.9881C205.57 41.0876 205.316 40.291 204.924 39.5983C204.554 38.8826 204.023 38.3169 203.33 37.9013C202.638 37.4626 201.726 37.2432 200.594 37.2432C199.671 37.2432 198.77 37.3933 197.893 37.6935C197.039 37.9705 196.207 38.34 195.399 38.8018C195.399 38.871 195.388 39.0096 195.365 39.2174C195.365 39.4252 195.365 39.6561 195.365 39.91C195.365 40.1409 195.353 40.3718 195.33 40.6027C195.33 40.8105 195.33 40.9606 195.33 41.053ZM211.746 35.0959C211.631 35.0959 211.458 35.0729 211.227 35.0267C211.019 34.9574 210.8 34.8881 210.569 34.8189C210.338 34.7265 210.119 34.6457 209.911 34.5764C209.703 34.4841 209.565 34.4148 209.495 34.3686C209.472 34.3225 209.461 34.2763 209.461 34.2301C209.438 34.1839 209.426 34.1262 209.426 34.0569C209.426 33.7337 209.553 33.4566 209.807 33.2257C210.061 32.9948 210.35 32.8101 210.673 32.6716C211.019 32.51 211.354 32.3945 211.677 32.3252C212 32.2329 212.254 32.1752 212.439 32.1521H212.855H213.201C213.755 32.1983 214.459 32.2675 215.314 32.3599C216.168 32.4522 217.068 32.5561 218.015 32.6716C218.985 32.7639 219.955 32.8678 220.924 32.9833C221.917 33.0756 222.806 33.1795 223.591 33.295C224.399 33.3873 225.069 33.4682 225.6 33.5374C226.154 33.5836 226.477 33.6067 226.57 33.6067C226.754 33.6298 226.985 33.676 227.262 33.7452C227.563 33.7914 227.863 33.8838 228.163 34.0223C228.463 34.1377 228.74 34.2878 228.994 34.4725C229.248 34.6342 229.433 34.842 229.548 35.0959C229.363 35.4654 229.202 35.754 229.063 35.9618C228.925 36.1465 228.775 36.2966 228.613 36.412C228.451 36.5044 228.278 36.5506 228.094 36.5506C227.932 36.5506 227.724 36.5506 227.47 36.5506C226.5 36.5506 225.519 36.5159 224.526 36.4467C223.557 36.3774 222.587 36.3081 221.617 36.2389C220.647 36.1696 219.666 36.1003 218.673 36.0311C217.703 35.9618 216.722 35.9272 215.729 35.9272C215.729 36.3428 215.672 36.9662 215.556 37.7974C215.464 38.6286 215.383 39.506 215.314 40.4295C215.268 41.3531 215.291 42.2767 215.383 43.2002C215.498 44.1007 215.764 44.8627 216.18 45.4861C216.988 45.0012 217.83 44.7472 218.708 44.7241C219.585 44.701 220.474 44.6895 221.375 44.6895C221.767 44.6895 222.264 44.6895 222.864 44.6895C223.464 44.6895 224.041 44.7588 224.596 44.8973C225.173 45.0358 225.658 45.2667 226.05 45.59C226.443 45.9132 226.639 46.3981 226.639 47.0446C226.639 47.5064 226.547 47.8527 226.362 48.0836C226.177 48.3145 225.75 48.4299 225.08 48.4299C225.011 48.4299 224.861 48.3953 224.63 48.326C224.422 48.2568 224.191 48.176 223.938 48.0836C223.707 47.9912 223.487 47.9104 223.279 47.8412C223.072 47.7719 222.933 47.7373 222.864 47.7373C222.841 47.7373 222.748 47.7373 222.587 47.7373C222.448 47.7142 222.275 47.7026 222.067 47.7026C221.859 47.7026 221.652 47.7026 221.444 47.7026C221.259 47.6795 221.109 47.668 220.994 47.668C220.463 47.668 219.943 47.7026 219.435 47.7719C218.95 47.8412 218.523 47.9797 218.154 48.1875C217.784 48.3953 217.484 48.6955 217.253 49.088C217.045 49.4805 216.941 49.9885 216.941 50.6119C216.941 50.8197 216.965 51.1776 217.011 51.6855C217.057 52.1935 217.115 52.7592 217.184 53.3826C217.276 53.9829 217.392 54.6063 217.53 55.2528C217.669 55.8993 217.854 56.4996 218.084 57.0537C218.315 57.5848 218.569 58.035 218.846 58.4045C219.147 58.7508 219.504 58.924 219.92 58.924C219.966 58.924 220.082 58.9124 220.266 58.8893C220.451 58.8662 220.566 58.8547 220.613 58.8547C221.398 58.3237 222.183 57.7464 222.968 57.123C223.776 56.4996 224.607 55.9224 225.461 55.3913C226.316 54.8372 227.205 54.3754 228.128 54.006C229.052 53.6135 230.01 53.4172 231.003 53.4172V55.1143C231.003 55.2066 230.772 55.4606 230.31 55.8762C229.871 56.2918 229.283 56.7767 228.544 57.3308C227.828 57.885 227.02 58.4737 226.119 59.0971C225.219 59.7205 224.318 60.2978 223.418 60.8288C222.518 61.3368 221.652 61.7639 220.82 62.1103C220.012 62.4566 219.331 62.6298 218.777 62.6298C217.992 62.6298 217.288 62.2834 216.664 61.5908C216.064 60.875 215.522 59.9399 215.037 58.7854C214.552 57.6079 214.148 56.2572 213.824 54.7333C213.501 53.2094 213.213 51.6393 212.959 50.0231C212.728 48.4069 212.531 46.8022 212.37 45.209C212.231 43.5928 212.116 42.1035 212.024 40.7412C211.931 39.379 211.862 38.2014 211.816 37.2086C211.793 36.1927 211.77 35.4885 211.746 35.0959Z" fill="#FF7900"/>
</svg>
