<svg width="33" height="33" viewBox="0 0 33 33" fill="none" xmlns="http://www.w3.org/2000/svg">
<path d="M19.3165 0.483773C19.1634 0.330415 18.9815 0.20875 18.7814 0.125739C18.5812 0.0427277 18.3666 0 18.1499 0C17.9333 0 17.7187 0.0427277 17.5185 0.125739C17.3183 0.20875 17.1365 0.330415 16.9834 0.483773L7.3476 10.1196C7.32285 10.1179 7.29975 10.1047 7.275 10.1047C7.0583 10.1045 6.84369 10.1471 6.6435 10.2301C6.44331 10.313 6.26149 10.4347 6.10847 10.5882L3.77541 12.9212C3.31474 13.3803 2.94954 13.926 2.7009 14.527C2.45226 15.1279 2.32509 15.7721 2.32674 16.4225C2.32674 17.7458 2.84318 18.9898 3.77706 19.9221L4.94359 21.0886L1.44236 24.5898C0.980595 25.0433 0.61492 25.5851 0.367156 26.1829C0.119392 26.7808 -0.00538111 27.4225 0.000282818 28.0696C-0.00750888 28.7946 0.145786 29.5123 0.449099 30.1709C0.752411 30.8294 1.19817 31.4124 1.7542 31.8777C2.61053 32.6021 3.71436 32.9997 4.86439 32.9997C6.24047 32.9997 7.59344 32.4371 8.57682 31.4537L11.9428 28.0894L13.1093 29.2543C14.9804 31.1237 18.239 31.1254 20.1085 29.2559L22.4432 26.9229C22.5966 26.7699 22.7183 26.588 22.8013 26.3879C22.8842 26.1877 22.9268 25.9731 22.9266 25.7564C22.9266 25.7135 22.9052 25.6739 22.9019 25.631L32.5162 16.0166C32.6696 15.8635 32.7913 15.6817 32.8743 15.4815C32.9573 15.2813 33 15.0668 33 14.8501C33 14.6334 32.9573 14.4188 32.8743 14.2186C32.7913 14.0185 32.6696 13.8366 32.5162 13.6835L19.3165 0.483773ZM17.7738 26.9229C17.4594 27.223 17.0415 27.3903 16.6069 27.39C16.1723 27.3897 15.7546 27.2218 15.4407 26.9212L13.1076 24.5898C12.9545 24.4365 12.7727 24.3148 12.5725 24.2318C12.3724 24.1488 12.1578 24.1061 11.9411 24.1061C11.7244 24.1061 11.5098 24.1488 11.3097 24.2318C11.1095 24.3148 10.9277 24.4365 10.7746 24.5898L6.24377 29.119C5.87869 29.4871 5.38283 29.6959 4.86439 29.6998C4.50728 29.7056 4.15979 29.5839 3.88431 29.3566C3.69524 29.2001 3.54436 29.0025 3.44314 28.779C3.34193 28.5554 3.29305 28.3116 3.30022 28.0663C3.2985 27.854 3.33953 27.6434 3.42089 27.4473C3.50224 27.2511 3.62225 27.0733 3.77376 26.9245L8.44153 22.2568C8.59488 22.1037 8.71655 21.9218 8.79956 21.7217C8.88257 21.5215 8.9253 21.3069 8.9253 21.0902C8.9253 20.8735 8.88257 20.659 8.79956 20.4588C8.71655 20.2586 8.59488 20.0768 8.44153 19.9237L6.10682 17.589C5.95335 17.4364 5.83174 17.2549 5.74903 17.0549C5.66632 16.8549 5.62417 16.6405 5.62503 16.4241C5.62503 15.9819 5.79663 15.5678 6.10847 15.2559L7.275 14.0894L18.9419 25.758L17.7738 26.9229ZM20.8905 22.9762L10.0238 12.1095L18.1499 3.98336L29.0166 14.8501L20.8905 22.9762Z" fill="white"/>
</svg>
